<?xml version="1.0" encoding="utf-8"?>
<!-- Generator: Adobe Illustrator 16.0.0, SVG Export Plug-In . SVG Version: 6.00 Build 0)  -->
<svg version="1.1" id="anzLogo" xmlns="http://www.w3.org/2000/svg" xmlns:xlink="http://www.w3.org/1999/xlink" x="0px" y="0px" width="100px" height="31.973px" viewBox="20.406 6.524 100 31.973" enable-background="new 20.406 6.524 100 31.973" xml:space="preserve">
<g opacity="0.5">
	<path d="M103.539,16.359c1.491,0,3.175,1.279,3.182,3.04c0,0.994-0.319,1.754-0.788,2.45c-0.306,0.455-0.54,0.966-0.625,1.342
		c-0.1,0.427-0.327,1.442,0.938,1.464c0.816,0.015,2.827-0.688,4.453-2.628c1.25-1.555,1.995-3.537,1.995-5.688
		c0-5.042-4.091-9.126-9.14-9.126l0,0c-5.05,0-9.141,4.083-9.141,9.126c0,2.152,0.746,4.133,1.996,5.688
		c1.626,1.946,3.636,2.643,4.452,2.628c1.258-0.021,1.037-1.037,0.938-1.464c-0.093-0.368-0.32-0.887-0.632-1.342
		c-0.47-0.696-0.789-1.463-0.789-2.45C100.364,17.638,102.048,16.359,103.539,16.359L103.539,16.359z"/>
	<path d="M119.696,25.584c-0.37-0.305-1.037-0.76-2.38-0.958c-1.867-0.277-3.543,0.156-4.552,0.553
		c-1.321,0.52-2.947,1.691-4.076,3.232c-1.187,1.618-1.804,4.069-1.215,6.619c0.17,0.724,0.348,1.122,0.61,1.626
		c0.363,0.689,1.278,1.641,2.096,1.812c0.646,0.134,1.144-0.234,1.385-0.513c1.633-1.874,7.826-9.139,8.501-10.069
		C120.74,26.969,120.306,26.089,119.696,25.584z"/>
	<path d="M94.306,25.179c-1.008-0.396-2.678-0.83-4.545-0.553c-1.342,0.206-2.003,0.653-2.379,0.958
		c-0.604,0.505-1.037,1.385-0.377,2.302c0.675,0.931,6.868,8.188,8.501,10.069c0.241,0.278,0.738,0.646,1.385,0.513
		c0.817-0.171,1.733-1.122,2.096-1.812c0.263-0.504,0.44-0.902,0.61-1.626c0.589-2.55-0.028-5.001-1.215-6.619
		C97.254,26.871,95.62,25.692,94.306,25.179z"/>
</g>
<g>
	<radialGradient id="SVGID_1_" cx="103.4646" cy="7.6104" r="7.5991" gradientTransform="matrix(-4.371139e-008 1 -0.8 -3.496911e-008 109.5529 -95.8542)" gradientUnits="userSpaceOnUse">
		<stop  offset="0" style="stop-color:#59B8DA"/>
		<stop  offset="1" style="stop-color:#2897C8"/>
	</radialGradient>
	<path fill="url(#SVGID_1_)" d="M103.539,15.671c1.491,0,3.175,1.278,3.182,3.04c0,0.995-0.319,1.754-0.788,2.45
		c-0.306,0.455-0.54,0.966-0.625,1.342c-0.1,0.426-0.327,1.442,0.938,1.463c0.816,0.015,2.827-0.689,4.453-2.628
		c1.25-1.555,1.995-3.537,1.995-5.688c0-5.042-4.091-9.126-9.14-9.126l0,0c-5.05,0-9.141,4.083-9.141,9.126
		c0,2.151,0.746,4.133,1.996,5.688c1.626,1.947,3.636,2.643,4.452,2.628c1.258-0.021,1.037-1.037,0.938-1.463
		c-0.093-0.369-0.32-0.888-0.632-1.342c-0.47-0.696-0.789-1.463-0.789-2.45C100.364,16.949,102.048,15.671,103.539,15.671
		L103.539,15.671z"/>
	<linearGradient id="SVGID_2_" gradientUnits="userSpaceOnUse" x1="110.0056" y1="26.6548" x2="115.7111" y2="32.3603">
		<stop  offset="0" style="stop-color:#0C85BE"/>
		<stop  offset="1" style="stop-color:#006699"/>
	</linearGradient>
	<path fill="url(#SVGID_2_)" d="M119.696,24.896c-0.37-0.305-1.037-0.76-2.38-0.958c-1.867-0.278-3.543,0.156-4.552,0.553
		c-1.321,0.519-2.947,1.691-4.076,3.232c-1.187,1.618-1.804,4.069-1.215,6.619c0.17,0.724,0.348,1.122,0.61,1.625
		c0.363,0.689,1.278,1.642,2.096,1.812c0.646,0.135,1.144-0.234,1.385-0.512c1.633-1.874,7.826-9.14,8.501-10.07
		C120.74,26.281,120.306,25.401,119.696,24.896z"/>
	<linearGradient id="SVGID_3_" gradientUnits="userSpaceOnUse" x1="97.1091" y1="26.6147" x2="91.2653" y2="32.4586">
		<stop  offset="0" style="stop-color:#0C85BE"/>
		<stop  offset="1" style="stop-color:#006699"/>
	</linearGradient>
	<path fill="url(#SVGID_3_)" d="M94.306,24.491c-1.008-0.396-2.678-0.831-4.545-0.553c-1.342,0.205-2.003,0.653-2.379,0.958
		c-0.604,0.505-1.037,1.385-0.377,2.301c0.675,0.931,6.868,8.189,8.501,10.07c0.241,0.277,0.738,0.646,1.385,0.512
		c0.817-0.17,1.733-1.122,2.096-1.812c0.263-0.503,0.44-0.901,0.61-1.625c0.589-2.55-0.028-5.001-1.215-6.619
		C97.254,26.182,95.62,25.002,94.306,24.491z"/>
</g>
<path fill="#FFFFFF" d="M67.419,21.48h7.272c0,0-1.498,1.953-3.139,4.09h8.479c1.513-1.968,2.891-3.764,3.09-4.034
	c0.958-1.243,1.179-2.358,1.179-3.345v-1.414c0-0.717-0.44-1.108-1.108-1.108H67.419c-0.646,0-1.087,0.355-1.087,1.087v3.636
	C66.34,21.125,66.773,21.48,67.419,21.48z"/>
<path fill="#FFFFFF" d="M20.568,35.606c-0.199,0.334-0.199,0.682-0.085,0.909c0.134,0.27,0.447,0.419,0.789,0.419h5.163
	c0.653,0,1.229-0.348,1.563-0.866l5.695-9.034h-7.733C23.302,31.267,20.625,35.506,20.568,35.606z"/>
<path fill="#FFFFFF" d="M41.802,27.048h-7.236c0.177,1.001,1.52,8.45,1.598,8.885c0.121,0.674,0.54,1.016,1.165,1.016h4.978
	c0.455,0,0.689-0.143,0.896-0.405c0.149-0.178,0.206-0.455,0.142-0.853L41.802,27.048z"/>
<path fill="#FFFFFF" d="M64.074,16.758c0-0.732-0.434-1.087-1.087-1.087h-4.402c-0.654,0-1.087,0.355-1.087,1.087v8.245
	l-4.176-7.414c-0.824-1.363-2.23-1.875-3.856-1.917H46.22c-0.646,0-1.087,0.355-1.087,1.087v8.813h5.454l0.831,1.478h-6.292v8.813
	c0,0.731,0.44,1.087,1.086,1.087h4.403c0.646,0,1.087-0.355,1.087-1.087v-8.303l4.211,7.464c0.824,1.363,2.23,1.883,3.857,1.918
	h3.216c0.653,0,1.087-0.354,1.087-1.087v-8.806h-5.418l-0.838-1.478h6.256V16.758z"/>
<path fill="#FFFFFF" d="M39.956,16.701c-0.121-0.696-0.589-1.03-1.201-1.03h-2.159c-2.251,0-4.225,1.179-5.333,2.955
	c0,0-2.059,3.267-4.367,6.938H41.54L39.956,16.701z"/>
<path fill="#FFFFFF" d="M83.413,31.131H75.77c0,0,1.492-1.945,3.133-4.083h-8.479c-1.549,2.01-2.934,3.82-3.019,3.927
	c-1.13,1.563-1.236,3.146-1.236,4.233c0,0.234,0,0.617,0,0.617c0,0.718,0.44,1.108,1.107,1.108h16.136
	c0.646,0,1.086-0.355,1.086-1.087v-3.636C84.492,31.487,84.058,31.131,83.413,31.131z"/>
</svg>